<svg xmlns="http://www.w3.org/2000/svg" viewBox="0 0 1200 600" role="img" aria-label="EN 13034 technical PPE illustration"><defs><linearGradient id="bg" x2="1" y2="1"><stop stop-color="#050c20"/><stop offset=".55" stop-color="#10375b"/><stop offset="1" stop-color="#051528"/></linearGradient><pattern id="mesh" width="12" height="12" patternUnits="userSpaceOnUse"><path d="M0 0L12 12M12 0L0 12" stroke="#a2eafa" stroke-width="1.5" opacity=".9"/></pattern><style>.call{font:700 23px Arial,sans-serif;letter-spacing:2px;fill:#b3e9f7}</style></defs><rect width="1200" height="600" fill="url(#bg)"/><circle cx="350" cy="280" r="235" fill="none" stroke="#6ed5ea" stroke-width="2" opacity=".12"/><circle cx="350" cy="280" r="200" fill="none" stroke="#6ed5ea" stroke-width="2" opacity=".12"/><path d="M310 88l-68 30-35 92 45 28 32-58 8 128-20 170h71l17-151 17 151h71l-20-170 8-128 32 58 45-28-35-92-68-30-22 40h-47Z" fill="#15465f" stroke="#b7ecfc" stroke-width="10"/><path d="M333 125v180" stroke="#52c9e7" stroke-width="10" stroke-dasharray="10 10"/><g fill="#4adbe5"><path d="M560 195q-15 19 0 31q15-12 0-31"/><path d="M595 270q-15 19 0 31q15-12 0-31"/></g><text x="625" y="225" class="call">TYPE 6</text><text x="625" y="264" class="call">LIMITED SPLASH</text><text x="60" y="552" fill="#e5faff" font-family="Arial" font-size="36" font-weight="800">EN 13034</text><text x="1180" y="552" text-anchor="end" fill="#a6d5e4" font-family="Arial" font-size="18">SERNEM · TECHNICAL ILLUSTRATION</text></svg>